<?xml version="1.0" encoding="UTF-8"?><svg xmlns="http://www.w3.org/2000/svg" viewBox="0 0 960 640" role="img" aria-labelledby="title desc"><title id="title">Holothuria — Holothuria sp. — educational museum-specimen schematic</title><desc id="desc">Soft cucumber-shaped echinoderm with oral tentacles. Original LBFL schematic; not to scale.</desc><rect width="960" height="640" fill="#fbfaf6"/><rect x="35" y="35" width="890" height="570" rx="24" fill="#fff" stroke="#c9ddd8" stroke-width="3"/><text x="70" y="95" font-size="34" font-weight="700" font-family="Arial, sans-serif" fill="#17353a">46. Holothuria — Holothuria sp.</text><text x="70" y="132" font-size="23" font-family="Arial, sans-serif" fill="#0f706d">Echinodermata</text><g aria-hidden="true"><ellipse cx="425" cy="370" rx="165" ry="82" fill="#dff1ee" stroke="#0f706d" stroke-width="8"/><path d="M265 360 Q230 315 195 265" fill="none" stroke="#0f706d" stroke-width="6"/><path d="M265 360 Q227 323 191 275" fill="none" stroke="#0f706d" stroke-width="6"/><path d="M265 360 Q224 331 187 285" fill="none" stroke="#0f706d" stroke-width="6"/><path d="M265 360 Q221 339 183 295" fill="none" stroke="#0f706d" stroke-width="6"/><path d="M265 360 Q218 347 179 305" fill="none" stroke="#0f706d" stroke-width="6"/><path d="M265 360 Q215 355 175 315" fill="none" stroke="#0f706d" stroke-width="6"/><path d="M265 360 Q212 363 171 325" fill="none" stroke="#0f706d" stroke-width="6"/></g><rect x="650" y="190" width="250" height="50" rx="12" fill="#f5f9f8" stroke="#c9ddd8"/><text x="670" y="222" font-size="22" font-family="Arial, sans-serif" fill="#17353a">cucumber-shaped body</text><rect x="650" y="260" width="250" height="50" rx="12" fill="#f5f9f8" stroke="#c9ddd8"/><text x="670" y="292" font-size="22" font-family="Arial, sans-serif" fill="#17353a">oral tentacles</text><rect x="650" y="330" width="250" height="50" rx="12" fill="#f5f9f8" stroke="#c9ddd8"/><text x="670" y="362" font-size="22" font-family="Arial, sans-serif" fill="#17353a">tube feet</text><text x="70" y="535" font-size="20" font-weight="700" font-family="Arial, sans-serif" fill="#0f706d">Diagnostic cue</text><text x="70" y="570" font-size="20" font-family="Arial, sans-serif" fill="#17353a">Soft cucumber-shaped echinoderm with oral tentacles.</text><text x="700" y="602" font-size="17" font-family="Arial, sans-serif" fill="#52666a">LBFL original schematic • not to scale</text></svg>