<?xml version="1.0" encoding="UTF-8"?><svg xmlns="http://www.w3.org/2000/svg" viewBox="0 0 960 640" role="img" aria-labelledby="title desc"><title id="title">Millipedes — representative Julus — educational museum-specimen schematic</title><desc id="desc">Two pairs of legs on most diplosegments. Original LBFL schematic; not to scale.</desc><rect width="960" height="640" fill="#fbfaf6"/><rect x="35" y="35" width="890" height="570" rx="24" fill="#fff" stroke="#c9ddd8" stroke-width="3"/><text x="70" y="95" font-size="34" font-weight="700" font-family="Arial, sans-serif" fill="#17353a">40. Millipedes — representative Julus</text><text x="70" y="132" font-size="23" font-family="Arial, sans-serif" fill="#0f706d">Arthropoda</text><g aria-hidden="true"><path d="M255 345 C350 310 485 315 565 350" fill="none" stroke="#0f706d" stroke-width="28"/><path d="M295 350 L277 400 M302 350 L317 400" stroke="#0f706d" stroke-width="5"/><path d="M320 350 L302 400 M327 350 L342 400" stroke="#0f706d" stroke-width="5"/><path d="M345 350 L327 400 M352 350 L367 400" stroke="#0f706d" stroke-width="5"/><path d="M370 350 L352 400 M377 350 L392 400" stroke="#0f706d" stroke-width="5"/><path d="M395 350 L377 400 M402 350 L417 400" stroke="#0f706d" stroke-width="5"/><path d="M420 350 L402 400 M427 350 L442 400" stroke="#0f706d" stroke-width="5"/><path d="M445 350 L427 400 M452 350 L467 400" stroke="#0f706d" stroke-width="5"/><path d="M470 350 L452 400 M477 350 L492 400" stroke="#0f706d" stroke-width="5"/><path d="M495 350 L477 400 M502 350 L517 400" stroke="#0f706d" stroke-width="5"/><path d="M520 350 L502 400 M527 350 L542 400" stroke="#0f706d" stroke-width="5"/></g><rect x="650" y="190" width="250" height="50" rx="12" fill="#f5f9f8" stroke="#c9ddd8"/><text x="670" y="222" font-size="22" font-family="Arial, sans-serif" fill="#17353a">cylindrical trunk</text><rect x="650" y="260" width="250" height="50" rx="12" fill="#f5f9f8" stroke="#c9ddd8"/><text x="670" y="292" font-size="22" font-family="Arial, sans-serif" fill="#17353a">diplosegments</text><rect x="650" y="330" width="250" height="50" rx="12" fill="#f5f9f8" stroke="#c9ddd8"/><text x="670" y="362" font-size="22" font-family="Arial, sans-serif" fill="#17353a">two leg pairs</text><text x="70" y="535" font-size="20" font-weight="700" font-family="Arial, sans-serif" fill="#0f706d">Diagnostic cue</text><text x="70" y="570" font-size="20" font-family="Arial, sans-serif" fill="#17353a">Two pairs of legs on most diplosegments.</text><text x="700" y="602" font-size="17" font-family="Arial, sans-serif" fill="#52666a">LBFL original schematic • not to scale</text></svg>