<?xml version="1.0" encoding="UTF-8"?><svg xmlns="http://www.w3.org/2000/svg" viewBox="0 0 960 640" role="img" aria-labelledby="title desc"><title id="title">Palaemon — Palaemon sp. — educational museum-specimen schematic</title><desc id="desc">Caridean prawn with rostrum and tail fan. Original LBFL schematic; not to scale.</desc><rect width="960" height="640" fill="#fbfaf6"/><rect x="35" y="35" width="890" height="570" rx="24" fill="#fff" stroke="#c9ddd8" stroke-width="3"/><text x="70" y="95" font-size="34" font-weight="700" font-family="Arial, sans-serif" fill="#17353a">42. Palaemon — Palaemon sp.</text><text x="70" y="132" font-size="23" font-family="Arial, sans-serif" fill="#0f706d">Arthropoda</text><g aria-hidden="true"><path d="M300 350 Q410 245 520 335 Q470 430 340 410 Z" fill="#dff1ee" stroke="#0f706d" stroke-width="8"/><path d="M300 340 L230 295 M500 370 L570 335 M500 390 L570 435" stroke="#0f706d" stroke-width="8"/></g><rect x="650" y="190" width="250" height="50" rx="12" fill="#f5f9f8" stroke="#c9ddd8"/><text x="670" y="222" font-size="22" font-family="Arial, sans-serif" fill="#17353a">rostrum</text><rect x="650" y="260" width="250" height="50" rx="12" fill="#f5f9f8" stroke="#c9ddd8"/><text x="670" y="292" font-size="22" font-family="Arial, sans-serif" fill="#17353a">five walking-leg pairs</text><rect x="650" y="330" width="250" height="50" rx="12" fill="#f5f9f8" stroke="#c9ddd8"/><text x="670" y="362" font-size="22" font-family="Arial, sans-serif" fill="#17353a">tail fan</text><text x="70" y="535" font-size="20" font-weight="700" font-family="Arial, sans-serif" fill="#0f706d">Diagnostic cue</text><text x="70" y="570" font-size="20" font-family="Arial, sans-serif" fill="#17353a">Caridean prawn with rostrum and tail fan.</text><text x="700" y="602" font-size="17" font-family="Arial, sans-serif" fill="#52666a">LBFL original schematic • not to scale</text></svg>