<svg xmlns="http://www.w3.org/2000/svg" width="1200" height="720" viewBox="0 0 1200 720" role="img" aria-labelledby="title desc">
<title id="title">Amphibia classification</title>
<desc id="desc">Original educational diagram for LBFL Animal Diversity–II (223101).</desc>
<style>
.bg{fill:#fbfaf5} .box{fill:#fff;stroke:#0f5f5a;stroke-width:3;rx:16} .soft{fill:#e9f5f1;stroke:#0f5f5a;stroke-width:2;rx:16}
.warm{fill:#fff3d6;stroke:#9a6a00;stroke-width:2;rx:16} .rose{fill:#fbe9e6;stroke:#a33c2b;stroke-width:2;rx:16}
.line{stroke:#0f5f5a;stroke-width:4;fill:none;marker-end:url(#a)} .red{stroke:#a33c2b;stroke-width:4;fill:none;marker-end:url(#r)}
.blue{stroke:#245b91;stroke-width:4;fill:none;marker-end:url(#b)} .dash{stroke:#667;stroke-width:2;stroke-dasharray:7 7;fill:none}
.head{font:700 34px Arial,sans-serif;fill:#0f5f5a} .txt{font:26px Arial,sans-serif;fill:#163331}
.small{font:21px Arial,sans-serif;fill:#324d4b} .tiny{font:18px Arial,sans-serif;fill:#445}
</style>
<defs>
<marker id="a" markerWidth="10" markerHeight="10" refX="9" refY="3" orient="auto"><path d="M0,0 L0,6 L9,3 z" fill="#0f5f5a"/></marker>
<marker id="r" markerWidth="10" markerHeight="10" refX="9" refY="3" orient="auto"><path d="M0,0 L0,6 L9,3 z" fill="#a33c2b"/></marker>
<marker id="b" markerWidth="10" markerHeight="10" refX="9" refY="3" orient="auto"><path d="M0,0 L0,6 L9,3 z" fill="#245b91"/></marker>
</defs>
<rect class="bg" width="100%" height="100%"/>

<text x="600" y="48" text-anchor="middle" class="head">Living Amphibia: three orders</text>
<rect x="450" y="100" width="300" height="70" class="warm"/><text x="600" y="144" text-anchor="middle" class="txt">Amphibia</text>
<rect x="90" y="300" width="280" height="110" class="soft"/><text x="230" y="340" text-anchor="middle" class="txt">Anura</text><text x="230" y="375" text-anchor="middle" class="small">frogs + toads</text>
<rect x="460" y="300" width="280" height="110" class="soft"/><text x="600" y="340" text-anchor="middle" class="txt">Caudata/Urodela</text><text x="600" y="375" text-anchor="middle" class="small">salamanders + newts</text>
<rect x="830" y="300" width="280" height="110" class="soft"/><text x="970" y="340" text-anchor="middle" class="txt">Gymnophiona/Apoda</text><text x="970" y="375" text-anchor="middle" class="small">caecilians</text>
<path d="M520 170 L230 300" class="line"/><path d="M600 170 L600 300" class="line"/><path d="M680 170 L970 300" class="line"/>
<text x="600" y="560" text-anchor="middle" class="small">Bufo (traditional teaching genus for toads) belongs to Anura.</text>

</svg>