<svg xmlns="http://www.w3.org/2000/svg" width="1200" height="720" viewBox="0 0 1200 720" role="img" aria-labelledby="title desc">
<title id="title">Scoliodon body plan</title>
<desc id="desc">Original educational diagram for LBFL Animal Diversity–II (223101).</desc>
<style>
.bg{fill:#fbfaf5} .box{fill:#fff;stroke:#0f5f5a;stroke-width:3;rx:16} .soft{fill:#e9f5f1;stroke:#0f5f5a;stroke-width:2;rx:16}
.warm{fill:#fff3d6;stroke:#9a6a00;stroke-width:2;rx:16} .rose{fill:#fbe9e6;stroke:#a33c2b;stroke-width:2;rx:16}
.line{stroke:#0f5f5a;stroke-width:4;fill:none;marker-end:url(#a)} .red{stroke:#a33c2b;stroke-width:4;fill:none;marker-end:url(#r)}
.blue{stroke:#245b91;stroke-width:4;fill:none;marker-end:url(#b)} .dash{stroke:#667;stroke-width:2;stroke-dasharray:7 7;fill:none}
.head{font:700 34px Arial,sans-serif;fill:#0f5f5a} .txt{font:26px Arial,sans-serif;fill:#163331}
.small{font:21px Arial,sans-serif;fill:#324d4b} .tiny{font:18px Arial,sans-serif;fill:#445}
</style>
<defs>
<marker id="a" markerWidth="10" markerHeight="10" refX="9" refY="3" orient="auto"><path d="M0,0 L0,6 L9,3 z" fill="#0f5f5a"/></marker>
<marker id="r" markerWidth="10" markerHeight="10" refX="9" refY="3" orient="auto"><path d="M0,0 L0,6 L9,3 z" fill="#a33c2b"/></marker>
<marker id="b" markerWidth="10" markerHeight="10" refX="9" refY="3" orient="auto"><path d="M0,0 L0,6 L9,3 z" fill="#245b91"/></marker>
</defs>
<rect class="bg" width="100%" height="100%"/>

<text x="600" y="48" text-anchor="middle" class="head">Scoliodon: shark body plan and key diagnostic features</text>
<path d="M130 365 C260 230 560 230 870 310 C980 340 1050 325 1110 285 C1085 355 1085 390 1110 455 C1035 425 975 410 870 430 C560 505 260 495 130 365 Z" class="soft"/>
<path d="M470 260 L540 150 L600 270" class="box"/><text x="535" y="130" text-anchor="middle" class="small">dorsal fin</text>
<path d="M520 440 L430 555 L640 450" class="box"/><text x="460" y="600" class="small">pectoral fin</text>
<circle cx="280" cy="335" r="10" fill="#163331"/><text x="260" y="305" class="small">eye</text>
<path d="M235 370 C190 385 170 405 155 425" class="dash"/><text x="170" y="455" class="small">mouth ventral</text>
<path d="M350 335 L350 420 M370 335 L370 420 M390 335 L390 420 M410 335 L410 420 M430 335 L430 420" class="dash"/>
<text x="390" y="470" text-anchor="middle" class="small">5 gill slits</text>
<text x="720" y="555" text-anchor="middle" class="small">cartilaginous skeleton • placoid scales • no swim bladder</text>

</svg>