<svg xmlns="http://www.w3.org/2000/svg" width="1200" height="720" viewBox="0 0 1200 720" role="img" aria-labelledby="title desc">
<title id="title">Labeo gill ventilation and countercurrent exchange</title>
<desc id="desc">Original educational diagram for LBFL Animal Diversity–II (223101).</desc>
<style>
.bg{fill:#fbfaf5} .box{fill:#fff;stroke:#0f5f5a;stroke-width:3;rx:16} .soft{fill:#e9f5f1;stroke:#0f5f5a;stroke-width:2;rx:16}
.warm{fill:#fff3d6;stroke:#9a6a00;stroke-width:2;rx:16} .rose{fill:#fbe9e6;stroke:#a33c2b;stroke-width:2;rx:16}
.line{stroke:#0f5f5a;stroke-width:4;fill:none;marker-end:url(#a)} .red{stroke:#a33c2b;stroke-width:4;fill:none;marker-end:url(#r)}
.blue{stroke:#245b91;stroke-width:4;fill:none;marker-end:url(#b)} .dash{stroke:#667;stroke-width:2;stroke-dasharray:7 7;fill:none}
.head{font:700 34px Arial,sans-serif;fill:#0f5f5a} .txt{font:26px Arial,sans-serif;fill:#163331}
.small{font:21px Arial,sans-serif;fill:#324d4b} .tiny{font:18px Arial,sans-serif;fill:#445}
</style>
<defs>
<marker id="a" markerWidth="10" markerHeight="10" refX="9" refY="3" orient="auto"><path d="M0,0 L0,6 L9,3 z" fill="#0f5f5a"/></marker>
<marker id="r" markerWidth="10" markerHeight="10" refX="9" refY="3" orient="auto"><path d="M0,0 L0,6 L9,3 z" fill="#a33c2b"/></marker>
<marker id="b" markerWidth="10" markerHeight="10" refX="9" refY="3" orient="auto"><path d="M0,0 L0,6 L9,3 z" fill="#245b91"/></marker>
</defs>
<rect class="bg" width="100%" height="100%"/>

<text x="600" y="48" text-anchor="middle" class="head">Labeo: gill ventilation + countercurrent exchange</text>
<rect x="80" y="110" width="230" height="75" class="soft"/><text x="195" y="156" text-anchor="middle" class="small">Mouth opens</text>
<rect x="385" y="110" width="230" height="75" class="box"/><text x="500" y="156" text-anchor="middle" class="small">Water over gills</text>
<rect x="690" y="110" width="230" height="75" class="soft"/><text x="805" y="156" text-anchor="middle" class="small">Operculum exits</text>
<path d="M310 147 L385 147" class="blue"/><path d="M615 147 L690 147" class="blue"/>
<rect x="120" y="330" width="960" height="190" class="box"/>
<path d="M230 395 L940 395" class="blue"/><text x="230" y="370" class="small">Water: high O₂</text><text x="940" y="370" text-anchor="end" class="small">lower O₂</text>
<path d="M940 470 L230 470" class="red"/><text x="940" y="505" text-anchor="end" class="small">Blood in: low O₂</text><text x="230" y="505" class="small">Blood out: higher O₂</text>
<text x="600" y="610" text-anchor="middle" class="small">Opposite flows maintain a diffusion gradient along much of the secondary lamella.</text>

</svg>